<svg width="41" height="41" viewBox="0 0 41 41" fill="none" xmlns="http://www.w3.org/2000/svg">
<path fill-rule="evenodd" clip-rule="evenodd" d="M20.1013 40.3232C31.1471 40.3232 40.1013 31.3689 40.1013 20.3232C40.1013 9.27754 31.1471 0.323242 20.1013 0.323242C9.05561 0.323242 0.101318 9.27754 0.101318 20.3232C0.101318 31.3689 9.05561 40.3232 20.1013 40.3232ZM23.1883 15.7758C24.8931 14.0709 24.8931 11.3068 23.1883 9.6019C21.4834 7.89702 18.7193 7.89702 17.0144 9.6019C15.3096 11.3068 15.3096 14.0709 17.0144 15.7758L20.1013 18.8627L23.1883 15.7758ZM24.6488 23.4102C26.3537 25.1151 29.1178 25.1151 30.8227 23.4102C32.5275 21.7053 32.5275 18.9412 30.8227 17.2363C29.1178 15.5315 26.3537 15.5315 24.6488 17.2363L21.5619 20.3233L24.6488 23.4102ZM23.1883 31.0446C24.8931 29.3397 24.8931 26.5756 23.1883 24.8707L20.1013 21.7838L17.0144 24.8707C15.3096 26.5756 15.3096 29.3397 17.0144 31.0446C18.7193 32.7495 21.4834 32.7495 23.1883 31.0446ZM9.37995 23.4102C7.67511 21.7053 7.67511 18.9412 9.37995 17.2363C11.0849 15.5315 13.849 15.5315 15.5539 17.2363L18.6408 20.3233L15.5539 23.4102C13.849 25.1151 11.0849 25.1151 9.37995 23.4102Z" fill="#7F57F1"/>
</svg>
